<svg xmlns="http://www.w3.org/2000/svg" xmlns:xlink="http://www.w3.org/1999/xlink" width="24" height="24" viewBox="0 0 24 24">
  <defs>
    <symbol id="icon_guide" data-name="icon guide" viewBox="0 0 24 24">
      <g style="opacity: 0">
        <path d="M23,1V23H1V1H23m1-1H0V24H24V0Z" style="fill: #f40005"/>
      </g>
    </symbol>
  </defs>
  <g id="Layer_2" data-name="Layer 2">
    <g id="art">
      <g>
        <use width="24" height="24" xlink:href="#icon_guide"/>
        <path d="M3.4844,19.5215a2.1343,2.1343,0,0,1-.7959-.8262,2.3574,2.3574,0,0,1-.2813-1.1426,2.1977,2.1977,0,0,1,.2989-1.1162L9.5352,4.457a2.1894,2.1894,0,0,1,.8613-.8525,2.2983,2.2983,0,0,1,1.1074-.29,2.2651,2.2651,0,0,1,1.1074.29,2.209,2.209,0,0,1,.8535.8525L20.293,16.4189a2.4734,2.4734,0,0,1,.2246.5625,2.3309,2.3309,0,0,1,.0742.5713,2.3574,2.3574,0,0,1-.2813,1.1426,2.1424,2.1424,0,0,1-.791.8262,2.2684,2.2684,0,0,1-1.1953.3076H4.6836A2.29,2.29,0,0,1,3.4844,19.5215Zm14.8222-.7559a1.1086,1.1086,0,0,0,.8614-.3691,1.2224,1.2224,0,0,0,.334-.8438,1.3,1.3,0,0,0-.1582-.6152L12.5332,4.9756a1.102,1.102,0,0,0-.4492-.4483,1.2478,1.2478,0,0,0-.58-.1406,1.2688,1.2688,0,0,0-.5889.1445,1.0735,1.0735,0,0,0-.4482.4444l-6.82,11.9619a1.2326,1.2326,0,0,0-.1094.3164,1.5716,1.5716,0,0,0-.0312.2988,1.24,1.24,0,0,0,.3252.8438,1.0916,1.0916,0,0,0,.8613.3691Zm-7.3828-2.2939a.7589.7589,0,0,1-.2373-.5537.75.75,0,0,1,.2373-.5625.8046.8046,0,0,1,.58-.2285.7961.7961,0,0,1,.5723.2285.7774.7774,0,0,1-.0039,1.12.8182.8182,0,0,1-1.1485-.0039Zm.0352-3.0586-.0967-4.7022a.5787.5787,0,0,1,.167-.4482.63.63,0,0,1,.4658-.1758.6376.6376,0,0,1,.4658.18.5683.5683,0,0,1,.1758.4443l-.1055,4.7022q-.0087.5712-.5273.5713Q10.9678,13.9844,10.959,13.4131Z" style="fill: #fff"/>
      </g>
    </g>
  </g>
</svg>
