<svg xmlns="http://www.w3.org/2000/svg" xmlns:xlink="http://www.w3.org/1999/xlink" width="24" height="24" viewBox="0 0 24 24">
  <defs>
    <symbol id="icon_guide" data-name="icon guide" viewBox="0 0 24 24">
      <g style="opacity: 0">
        <path d="M23,1V23H1V1H23m1-1H0V24H24V0Z" style="fill: #f40005"/>
      </g>
    </symbol>
  </defs>
  <g id="Layer_2" data-name="Layer 2">
    <g id="art">
      <g>
        <use width="24" height="24" xlink:href="#icon_guide"/>
        <path d="M8.0723,19.625a9.0169,9.0169,0,0,1-4.72-4.7192,8.7457,8.7457,0,0,1,0-6.8116,8.9993,8.9993,0,0,1,4.711-4.72,8.761,8.761,0,0,1,6.8154,0,8.9179,8.9179,0,0,1,2.8125,1.9072,9.0853,9.0853,0,0,1,1.9072,2.8125,8.6994,8.6994,0,0,1,0,6.8116,9.0853,9.0853,0,0,1-1.9072,2.8125,8.9477,8.9477,0,0,1-2.8076,1.9067,8.7455,8.7455,0,0,1-6.8115,0Zm6.3935-1.041a7.7109,7.7109,0,0,0,4.1-4.1,7.7705,7.7705,0,0,0-.0039-5.9678A7.7651,7.7651,0,0,0,14.457,4.4116,7.6542,7.6542,0,0,0,6.042,6.064,7.7735,7.7735,0,0,0,4.3984,8.5161a7.7953,7.7953,0,0,0,0,5.9678,7.735,7.735,0,0,0,4.0909,4.1,7.77,7.77,0,0,0,5.9765,0Zm-4.249-2.9751a.8648.8648,0,0,1-.26-.2329L7.6016,12.5547a.7282.7282,0,0,1-.1582-.4219.5234.5234,0,0,1,.1543-.3779.49.49,0,0,1,.3642-.1582.6124.6124,0,0,1,.2686.0571.6752.6752,0,0,1,.2324.2066l2.03,2.5048,3.9814-6.2929a.56.56,0,0,1,.4746-.2989.5707.5707,0,0,1,.3779.1407.45.45,0,0,1,.167.36.5485.5485,0,0,1-.0478.2153,1.6474,1.6474,0,0,1-.11.2066l-4.2714,6.68a.6367.6367,0,0,1-.545.3076A.6181.6181,0,0,1,10.2168,15.6089Z" style="fill: #fff"/>
      </g>
    </g>
  </g>
</svg>
