<svg xmlns="http://www.w3.org/2000/svg" width="12.311" height="11.99" viewBox="0 0 12.311 11.99">
  <path id="check" d="M6.492,1.207A1.06,1.06,0,0,0,7.43.713l6.4-9.9A1.5,1.5,0,0,0,14-9.531a1.041,1.041,0,0,0,.054-.325.891.891,0,0,0-.267-.667.933.933,0,0,0-.679-.261.939.939,0,0,0-.482.113,1.179,1.179,0,0,0-.37.387L6.465-1.107,3.5-4.866a.977.977,0,0,0-.791-.4A.945.945,0,0,0,2.015-5a.908.908,0,0,0-.272.676,1,1,0,0,0,.064.352,1.185,1.185,0,0,0,.219.35L5.563.741A1.161,1.161,0,0,0,6.492,1.207Z" transform="translate(-1.743 10.783)" fill="#0a415e"/>
</svg>
