<svg id="close" xmlns="http://www.w3.org/2000/svg" width="10.843" height="10.838" viewBox="0 0 10.843 10.838">
  <path id="Path_703" data-name="Path 703" d="M-5.168.314a.638.638,0,0,0,.28.157.613.613,0,0,0,.314,0A.592.592,0,0,0-4.3.314L.075-4.061,4.45.314a.592.592,0,0,0,.273.157.652.652,0,0,0,.318,0A.544.544,0,0,0,5.318.314.566.566,0,0,0,5.472.041a.667.667,0,0,0,0-.314.566.566,0,0,0-.154-.273L.943-4.929,5.318-9.3a.592.592,0,0,0,.157-.273.613.613,0,0,0,0-.314.592.592,0,0,0-.157-.273.584.584,0,0,0-.28-.161.667.667,0,0,0-.314,0,.544.544,0,0,0-.273.161L.075-5.79-4.3-10.165a.544.544,0,0,0-.277-.161.681.681,0,0,0-.318,0,.544.544,0,0,0-.273.161.566.566,0,0,0-.154.273.667.667,0,0,0,0,.314.566.566,0,0,0,.154.273L-.793-4.929-5.168-.547a.592.592,0,0,0-.157.273.639.639,0,0,0,0,.314A.544.544,0,0,0-5.168.314Z" transform="translate(5.347 10.344)" fill="#012d44"/>
</svg>
