<svg xmlns="http://www.w3.org/2000/svg" xmlns:xlink="http://www.w3.org/1999/xlink" width="24" height="24" viewBox="0 0 24 24">
  <defs>
    <symbol id="icon_guide" data-name="icon guide" viewBox="0 0 24 24">
      <g style="opacity: 0">
        <path d="M23,1V23H1V1H23m1-1H0V24H24V0Z" style="fill: #f40005"/>
      </g>
    </symbol>
  </defs>
  <g id="Layer_2" data-name="Layer 2">
    <g id="art">
      <g>
        <use width="24" height="24" xlink:href="#icon_guide"/>
        <path d="M16.6842,5.5816a.4451.4451,0,0,1,.23-.1446.5261.5261,0,0,1,.27,0,.5354.5354,0,0,1,.2422.1446.4674.4674,0,0,1,.1367.23.5243.5243,0,0,1,0,.27.5121.5121,0,0,1-.1367.2344L6.3171,17.4253a.5183.5183,0,0,1-.504.1367.5087.5087,0,0,1-.2382-.1367.4527.4527,0,0,1-.1407-.2343.55.55,0,0,1,.0039-.27.5093.5093,0,0,1,.1368-.2383Zm-11.2461.5a.5264.5264,0,0,1,0-.27.461.461,0,0,1,.1368-.23.4844.4844,0,0,1,.2343-.1446.5264.5264,0,0,1,.27,0,.4916.4916,0,0,1,.2383.1446L17.4264,16.6831a.4858.4858,0,0,1,.1328.2383.5986.5986,0,0,1,0,.27.48.48,0,0,1-.1328.2343.4559.4559,0,0,1-.2383.1407.5747.5747,0,0,1-.2734-.004.4677.4677,0,0,1-.23-.1367L5.5749,6.316A.5046.5046,0,0,1,5.4381,6.0816Z" style="fill: #fff"/>
      </g>
    </g>
  </g>
</svg>
