<svg xmlns="http://www.w3.org/2000/svg" width="12.232" height="15.185" viewBox="0 0 12.232 15.185">
  <g id="docs" transform="translate(-1.25)">
    <path id="Path_691" data-name="Path 691" d="M1.25,4.545a2.466,2.466,0,0,1,.624-1.814,2.426,2.426,0,0,1,1.8-.628h7.389a2.422,2.422,0,0,1,1.8.628,2.47,2.47,0,0,1,.621,1.814V14.853a2.456,2.456,0,0,1-.621,1.81,2.426,2.426,0,0,1-1.8.624H3.672a2.429,2.429,0,0,1-1.8-.624,2.453,2.453,0,0,1-.624-1.81ZM9.86,7.128a.411.411,0,0,0,.346-.194.8.8,0,0,0,.138-.473.737.737,0,0,0-.138-.452.414.414,0,0,0-.346-.185H4.886a.426.426,0,0,0-.354.185.723.723,0,0,0-.142.452.782.782,0,0,0,.142.473.422.422,0,0,0,.354.194Zm0,2.575a.411.411,0,0,0,.346-.194.8.8,0,0,0,.138-.473.737.737,0,0,0-.138-.452A.414.414,0,0,0,9.86,8.4H4.886a.426.426,0,0,0-.354.185.723.723,0,0,0-.142.452.782.782,0,0,0,.142.473.422.422,0,0,0,.354.194ZM8.035,12.262a.406.406,0,0,0,.344-.191.734.734,0,0,0,.138-.447.788.788,0,0,0-.138-.478.411.411,0,0,0-.344-.189H4.886a.426.426,0,0,0-.354.189.782.782,0,0,0-.142.478.728.728,0,0,0,.142.447.421.421,0,0,0,.354.191Z" transform="translate(0 -2.103)" fill="#0a415e"/>
  </g>
</svg>
