<svg xmlns="http://www.w3.org/2000/svg" width="19.161" height="12.943" viewBox="0 0 19.161 12.943">
  <path id="inspect" d="M-9.505-4.936a.653.653,0,0,0,.062.277.709.709,0,0,0,.178.236L-4.7-.3a.681.681,0,0,0,.475.195.572.572,0,0,0,.434-.2.6.6,0,0,0,.154-.461.661.661,0,0,0-.229-.441L-7.974-4.936l4.108-3.726a.663.663,0,0,0,.229-.444.58.58,0,0,0-.154-.458.572.572,0,0,0-.434-.2A.681.681,0,0,0-4.7-9.57L-9.266-5.455a.783.783,0,0,0-.178.243A.653.653,0,0,0-9.505-4.936Zm7.711,6.453a.611.611,0,0,0,.5-.058.682.682,0,0,0,.3-.407l3.4-11.669a.6.6,0,0,0-.038-.465.561.561,0,0,0-.386-.287.634.634,0,0,0-.482.038.648.648,0,0,0-.3.427L-2.184.7a.76.76,0,0,0,.01.509A.518.518,0,0,0-1.794,1.518ZM9.656-4.936A.686.686,0,0,0,9.6-5.212a.737.737,0,0,0-.174-.243L4.857-9.57a.681.681,0,0,0-.475-.195.572.572,0,0,0-.434.2.57.57,0,0,0-.161.458.663.663,0,0,0,.229.444L8.131-4.936,4.016-1.21a.661.661,0,0,0-.229.441.585.585,0,0,0,.161.461.572.572,0,0,0,.434.2A.681.681,0,0,0,4.857-.3L9.423-4.423A.669.669,0,0,0,9.6-4.659.686.686,0,0,0,9.656-4.936Z" transform="translate(9.505 11.398)" fill="#012d44"/>
</svg>
