<?xml version="1.0" encoding="UTF-8"?>
<svg width="31px" height="21px" viewBox="0 0 31 21" version="1.1" xmlns="http://www.w3.org/2000/svg" xmlns:xlink="http://www.w3.org/1999/xlink">
    <!-- Generator: Sketch 63.1 (92452) - https://sketch.com -->
    <title>navIcn-live</title>
    <desc>Created with Sketch.</desc>
    <defs>
        <path d="M286.912188,136.084635 C289.748125,136.084635 291.306719,134.53776 291.306719,131.842448 L291.306719,120.498698 C291.306719,117.791667 289.795,116.244792 286.970781,116.244792 L275.052813,116.244792 C272.275469,116.244792 270.658281,117.791667 270.658281,120.498698 L270.658281,132.053385 C270.658281,134.748698 272.216875,136.084635 275.052813,136.084635 L286.912188,136.084635 Z M298.619219,134.408854 C299.650469,134.408854 300.38875,133.705729 300.38875,132.56901 L300.38875,119.936198 C300.38875,118.799479 299.650469,118.084635 298.619219,118.084635 C297.986406,118.084635 297.412188,118.447917 296.779375,118.97526 L293.228594,121.998698 L293.228594,130.494792 L296.779375,133.529948 C297.400469,134.057292 297.998125,134.408854 298.619219,134.408854 Z" id="path-1"></path>
    </defs>
    <g id="Production" stroke="none" stroke-width="1" fill="none" fill-rule="evenodd">
        <g id="Artboard" transform="translate(-270.000000, -116.000000)">
            <g id="navIcn-live">
                <!-- <use fill="#4D4D4D" style="mix-blend-mode: color-burn;" xlink:href="#path-1"></use>
                <use fill-opacity="0.4" fill="#000000" xlink:href="#path-1"></use> -->
                <path fill="#A9B2BC" d="M286.912188,136.084635 C289.748125,136.084635 291.306719,134.53776 291.306719,131.842448 L291.306719,120.498698 C291.306719,117.791667 289.795,116.244792 286.970781,116.244792 L275.052813,116.244792 C272.275469,116.244792 270.658281,117.791667 270.658281,120.498698 L270.658281,132.053385 C270.658281,134.748698 272.216875,136.084635 275.052813,136.084635 L286.912188,136.084635 Z M298.619219,134.408854 C299.650469,134.408854 300.38875,133.705729 300.38875,132.56901 L300.38875,119.936198 C300.38875,118.799479 299.650469,118.084635 298.619219,118.084635 C297.986406,118.084635 297.412188,118.447917 296.779375,118.97526 L293.228594,121.998698 L293.228594,130.494792 L296.779375,133.529948 C297.400469,134.057292 297.998125,134.408854 298.619219,134.408854 Z" id="path-1"></path>
            </g>
        </g>
    </g>
</svg>