<svg xmlns="http://www.w3.org/2000/svg" viewBox="0 0 175.02 32"><defs><style>.cls-1{fill:none;}.cls-2{fill:#a9b2bc;}</style></defs><g id="Layer_2" data-name="Layer 2"><g id="Layer_1-2" data-name="Layer 1"><path class="cls-1" d="M16,32A16,16,0,1,1,32,16,16,16,0,0,1,16,32ZM16,1A15,15,0,1,0,31,16,15,15,0,0,0,16,1Z"/><path class="cls-2" d="M57.4,11.2v1.64a2.59,2.59,0,0,1,1.11-1.36A3.44,3.44,0,0,1,60.3,11v2.75a2.8,2.8,0,0,0-2,.46,2.21,2.21,0,0,0-.88,2v4.56H54.94V11.2Z"/><path class="cls-2" d="M65.54,21a4.94,4.94,0,0,1-5-5,4.92,4.92,0,0,1,5-5,5,5,0,0,1,2.53.66,4.43,4.43,0,0,1,1.74,1.8l-2.12,1.24a2.13,2.13,0,0,0-.87-.94,2.67,2.67,0,0,0-3.14.39A2.59,2.59,0,0,0,63,16a2.64,2.64,0,0,0,.72,1.87,2.52,2.52,0,0,0,1.84.72,2.64,2.64,0,0,0,1.32-.33,2.06,2.06,0,0,0,.87-.93l2.14,1.22a4.65,4.65,0,0,1-1.78,1.82A5,5,0,0,1,65.54,21Z"/><path class="cls-2" d="M53.74,16a5.08,5.08,0,0,0-2.48-4.38,5,5,0,0,0-2.61-.68A5,5,0,0,0,43.59,16a5.08,5.08,0,0,0,1.34,3.55A4.37,4.37,0,0,0,48.22,21a3.68,3.68,0,0,0,3.07-1.38v1.12h2.44Zm-2.45,0a2.6,2.6,0,0,1-.74,1.92,2.53,2.53,0,0,1-1.88.76A2.57,2.57,0,0,1,46,16a2.7,2.7,0,0,1,.74-1.92,2.73,2.73,0,0,1,3.76,0A2.6,2.6,0,0,1,51.29,16Z"/><path class="cls-2" d="M74.69,24.65V22.37a2.48,2.48,0,0,0,1.61-.44,1.91,1.91,0,0,0,.87-1.38v-.93A3.11,3.11,0,0,1,74.35,21a3.41,3.41,0,0,1-2.57-1,4,4,0,0,1-1-2.89V11.2h2.45v5.52a2,2,0,0,0,.5,1.44,1.85,1.85,0,0,0,1.38.51,2,2,0,0,0,1.52-.59,2.51,2.51,0,0,0,.56-1.76V11.2h2.45v9.09a4.36,4.36,0,0,1-4.36,4.36Z"/><path class="cls-2" d="M96.7,11.53v9.53H94.25V19.94a3.83,3.83,0,0,1-3.11,1.39,4.81,4.81,0,0,1-4.63-5,4.81,4.81,0,0,1,4.63-5,3.8,3.8,0,0,1,3.11,1.39V11.53ZM94.25,16.3a2.64,2.64,0,1,0-5.28,0,2.64,2.64,0,1,0,5.28,0Z"/><path class="cls-2" d="M98.17,8.88a1.52,1.52,0,1,1,1.51,1.51A1.54,1.54,0,0,1,98.17,8.88Zm.29,2.65h2.46v9.53H98.46Z"/><path class="cls-2" d="M111.75,19.1a2.64,2.64,0,0,0,2.13-1l2,1.14a4.82,4.82,0,0,1-4.15,2,4.9,4.9,0,0,1-5.22-5,4.93,4.93,0,1,1,9.85,0,5.49,5.49,0,0,1-.1,1h-7.18A2.51,2.51,0,0,0,111.75,19.1Zm2.13-3.7a2.3,2.3,0,0,0-2.36-1.92A2.38,2.38,0,0,0,109,15.4Z"/><path class="cls-2" d="M123,21.06l-2-2.89-2.08,2.89H116l3.49-4.86-3.34-4.67H119l1.93,2.69,1.92-2.69h2.82l-3.33,4.65,3.48,4.88Z"/><path class="cls-2" d="M136.78,16.3a4.82,4.82,0,0,1-4.65,5A3.71,3.71,0,0,1,129,19.94v4.93h-2.46V11.53H129v1.13a3.68,3.68,0,0,1,3.09-1.39A4.82,4.82,0,0,1,136.78,16.3Zm-2.46,0a2.64,2.64,0,1,0-5.28,0,2.64,2.64,0,1,0,5.28,0Z"/><path class="cls-2" d="M138,7.15h2.45V21.06H138Z"/><path class="cls-2" d="M141.77,16.3a5,5,0,1,1,5,5A5,5,0,0,1,141.77,16.3Zm7.63,0a2.59,2.59,0,1,0-5.17,0,2.59,2.59,0,1,0,5.17,0Z"/><path class="cls-2" d="M158.47,11.34v2.75a2.38,2.38,0,0,0-2.9,2.42v4.55h-2.45V11.53h2.45v1.64A3,3,0,0,1,158.47,11.34Z"/><path class="cls-2" d="M163.83,19.1a2.64,2.64,0,0,0,2.13-1l2,1.14a4.82,4.82,0,0,1-4.15,2,4.9,4.9,0,0,1-5.22-5,4.93,4.93,0,1,1,9.85,0,6.54,6.54,0,0,1-.09,1h-7.19A2.51,2.51,0,0,0,163.83,19.1ZM166,15.4a2.3,2.3,0,0,0-2.36-1.92,2.38,2.38,0,0,0-2.5,1.92Z"/><path class="cls-2" d="M175,11.34v2.75a2.38,2.38,0,0,0-2.9,2.42v4.55h-2.46V11.53h2.46v1.64A3,3,0,0,1,175,11.34Z"/><path class="cls-2" d="M40.4,16.05a2.58,2.58,0,0,1-.76,1.9,2.68,2.68,0,0,1-3.72,0,2.63,2.63,0,0,1-.73-1.9A2.53,2.53,0,0,1,37.8,13.4h2.59V11.08h-3a4.34,4.34,0,0,0-3.26,1.45,5,5,0,0,0-1.33,3.52,4.94,4.94,0,0,0,5,5,5,5,0,0,0,2.59-.67,5.14,5.14,0,0,0,1-.78,4.86,4.86,0,0,0,1.46-3.57V8H40.4Z"/><path class="cls-2" d="M17.25,11.3a.5.5,0,0,0,.5.5h4.6a2,2,0,1,0,0-1H21.1L18,7.66H16.11a2.77,2.77,0,0,0-2.64-1.94l-1.05,0A2.43,2.43,0,0,0,10,8.13s0,.09,0,.14a3.76,3.76,0,0,0-2.57,3.54,3,3,0,0,0,.05.42l-.14.09a3.36,3.36,0,0,0,.25,5.37,2,2,0,0,0-.36.49,3.6,3.6,0,0,0,3.24,5.19h.21a2.61,2.61,0,0,0-.1.69,2.84,2.84,0,0,0,5.68,0h0V21.74h1.86l3.07,3.07H22.3a.5.5,0,0,0,.5-.5.5.5,0,0,0-.5-.5h-.69l-3.08-3.07h-.75a2.6,2.6,0,0,0,.53-1.14H20a3.08,3.08,0,1,0,0-1H18.31a2.61,2.61,0,0,0-1.58-1.94l1.19-1.19h2.37a.5.5,0,0,0,.5-.5.5.5,0,0,0-.5-.5H17.51l-1.25,1.25V8.66h1.28l2.15,2.14H17.75A.5.5,0,0,0,17.25,11.3ZM13.42,25.88a1.84,1.84,0,1,1,0-3.67.5.5,0,0,0,.5-.5.5.5,0,0,0-.5-.5,2.82,2.82,0,0,0-2.18,1,2.53,2.53,0,0,1-.77.12,2.6,2.6,0,0,1-2.61-2.6,2.55,2.55,0,0,1,.26-1.14,1.09,1.09,0,0,1,1-.58,1.11,1.11,0,0,1,1.11,1.11.5.5,0,0,0,1,0,2.12,2.12,0,0,0-2.11-2.11,2.08,2.08,0,0,0-.5.07l-.07-.05a2.36,2.36,0,0,1-.54-4A1.5,1.5,0,0,1,10.4,14a2.45,2.45,0,0,0-1.11.62.5.5,0,0,0,0,.7.51.51,0,0,0,.36.15.5.5,0,0,0,.35-.15,1.56,1.56,0,0,1,2.11,0,.51.51,0,0,0,.71,0,.5.5,0,0,0,0-.71,2.48,2.48,0,0,0-1.4-.62,2.47,2.47,0,0,0-3-2.13h0a2.75,2.75,0,0,1,1.84-2.58,2.42,2.42,0,0,0,2.15,1.32.5.5,0,0,0,0-1,1.43,1.43,0,1,1,0-2.85l1.06,0a1.8,1.8,0,0,1,1.79,1.8v4.4a2.71,2.71,0,0,0-1.71-.62.5.5,0,0,0-.5.5.51.51,0,0,0,.5.5A1.71,1.71,0,0,1,15.26,15v1.56a2.63,2.63,0,0,0,0,5.18V24h0A1.84,1.84,0,0,1,13.42,25.88ZM23,17.05a2.1,2.1,0,1,1-2.1,2.1A2.11,2.11,0,0,1,23,17.05ZM17.37,19.1a1.65,1.65,0,1,1-1.65-1.64A1.65,1.65,0,0,1,17.37,19.1Zm6.94-8.83a1,1,0,1,1-1,1A1,1,0,0,1,24.31,10.27Z"/><path class="cls-2" d="M21.88,8.72a1.55,1.55,0,1,0-1.54-1.55A1.54,1.54,0,0,0,21.88,8.72Zm0-2.09a.55.55,0,1,1,0,1.09.55.55,0,0,1,0-1.09Z"/><path class="cls-2" d="M17.27,6.57h1.52a.51.51,0,0,0,.5-.5.5.5,0,0,0-.5-.5H17.27a.5.5,0,0,0-.5.5A.51.51,0,0,0,17.27,6.57Z"/><path class="cls-2" d="M18.26,23.76a1.52,1.52,0,1,0,1.52,1.52A1.53,1.53,0,0,0,18.26,23.76Zm0,2a.53.53,0,0,1-.52-.52.52.52,0,0,1,.52-.52.52.52,0,0,1,.52.52A.52.52,0,0,1,18.26,25.8Z"/></g></g></svg>