<svg xmlns="http://www.w3.org/2000/svg" width="15.539" height="17.759" viewBox="0 0 15.539 17.759">
  <g id="Title" transform="translate(-17.194)">
    <path id="Edgeworx_Bug" data-name="Edgeworx Bug" d="M53.005,48.373a1.048,1.048,0,0,0-1.051-.027L41.375,54.152a.67.67,0,0,1-.906-.257.657.657,0,0,1,.26-.9l8.924-4.9a1.02,1.02,0,0,0,.046-1.768,1.043,1.043,0,0,0-1.051-.027l-6.981,3.831a.669.669,0,0,1-.906-.257.657.657,0,0,1,.259-.9l5.218-2.863a1.094,1.094,0,0,0,.049-1.894,1.122,1.122,0,0,0-1.126-.029l-6.856,3.762a.66.66,0,0,0-.343.577l-.008,8.1a1.023,1.023,0,0,0,.488.871,1.045,1.045,0,0,0,1.051.027L50.538,51.47a.669.669,0,0,1,.906.257.657.657,0,0,1-.26.9l-9.39,5.153a1.021,1.021,0,0,0-.046,1.768,1.048,1.048,0,0,0,1.051.027l7.448-4.087a.669.669,0,0,1,.906.257.656.656,0,0,1-.26.9L45.21,59.757a1.094,1.094,0,0,0-.05,1.9,1.12,1.12,0,0,0,1.126.028l6.856-3.762a.659.659,0,0,0,.343-.576l.008-8.1a1.025,1.025,0,0,0-.488-.872" transform="translate(-20.76 -44.06)" fill="#fd575d"/>
  </g>
</svg>
