<svg id="pause" xmlns="http://www.w3.org/2000/svg" width="5.688" height="11.293" viewBox="0 0 5.688 11.293">
  <path id="Path_702" data-name="Path 702" d="M-2.187.718A.58.58,0,0,0-1.771.554.537.537,0,0,0-1.6.15V-10a.545.545,0,0,0-.171-.41.58.58,0,0,0-.417-.164.571.571,0,0,0-.41.164.545.545,0,0,0-.171.41V.15a.537.537,0,0,0,.171.4A.571.571,0,0,0-2.187.718Zm4.519,0A.58.58,0,0,0,2.748.554a.537.537,0,0,0,.171-.4V-10a.545.545,0,0,0-.171-.41.58.58,0,0,0-.417-.164.571.571,0,0,0-.41.164A.545.545,0,0,0,1.75-10V.15a.537.537,0,0,0,.171.4A.571.571,0,0,0,2.331.718Z" transform="translate(2.769 10.575)" fill="#012d44"/>
</svg>
