<svg id="play" xmlns="http://www.w3.org/2000/svg" width="10.336" height="11.573" viewBox="0 0 10.336 11.573">
  <path id="Path_701" data-name="Path 701" d="M-3.507.861A1.066,1.066,0,0,0-3.117.79a2.585,2.585,0,0,0,.39-.195L5.243-4.013a2.457,2.457,0,0,0,.6-.448.694.694,0,0,0,.167-.468A.694.694,0,0,0,5.841-5.4a2.354,2.354,0,0,0-.6-.441l-7.971-4.614a3.007,3.007,0,0,0-.39-.188,1.066,1.066,0,0,0-.39-.072.738.738,0,0,0-.6.267,1.075,1.075,0,0,0-.222.711V-.123A1.089,1.089,0,0,0-4.1.591.734.734,0,0,0-3.507.861Zm.349-1.306q-.068,0-.068-.082v-8.8q0-.082.068-.082a.15.15,0,0,1,.082.034L4.491-5a.481.481,0,0,1,.041.031.055.055,0,0,1,.021.044.055.055,0,0,1-.021.044.481.481,0,0,1-.041.031L-3.076-.472A.173.173,0,0,1-3.158-.444Z" transform="translate(4.327 10.712)" fill="#012d44"/>
</svg>
