<?xml version="1.0" encoding="UTF-8"?>
<svg width="21px" height="24px" viewBox="0 0 21 24" version="1.1" xmlns="http://www.w3.org/2000/svg" xmlns:xlink="http://www.w3.org/1999/xlink">
    <title>Path</title>
    <g id="Onboard-(ECP-test)" stroke="none" stroke-width="1" fill="none" fill-rule="evenodd">
        <g id="Welcome-1" transform="translate(-17.000000, -17.000000)" fill="#FF595C" fill-rule="nonzero">
            <path d="M37.2969018,22.8214268 C36.8638242,22.5615802 36.3152593,22.5327084 35.8821817,22.7925549 L21.619494,30.6168229 C21.1864164,30.8477976 20.6378515,30.7034384 20.4068768,30.2703609 C20.1759021,29.8372833 20.3202613,29.2887184 20.7533389,29.0577437 L32.7928951,22.4460929 C33.7167939,21.9263998 33.7456658,20.6271671 32.8506388,20.0497304 C32.4175612,19.7898838 31.8689963,19.761012 31.4359188,20.0208585 L21.9948279,25.1889174 C21.5617503,25.4198921 21.0131854,25.275533 20.7822107,24.8424554 C20.551236,24.4093778 20.6955952,23.8608129 21.1286728,23.6298382 L28.1734011,19.761012 C29.1839154,19.2124471 29.2127873,17.797727 28.2311448,17.2202903 C27.7691954,16.9315719 27.1917586,16.9315719 26.7009374,17.1914184 L17.4619494,22.2728619 C17.173231,22.417221 17,22.7348113 17,23.0524015 L17,33.9659561 C17,34.4567773 17.2598465,34.8898549 17.6640523,35.1497014 C18.0971298,35.4095479 18.6456947,35.4384198 19.0787723,35.1785732 L33.9766405,27.0078432 C34.409718,26.7768685 34.9582829,26.9212277 35.1892576,27.3543053 C35.4202323,27.7873828 35.2758732,28.3359477 34.8427956,28.5669224 L22.1680589,35.5250353 C21.2441601,36.0447284 21.2152883,37.343961 22.1103152,37.9213978 C22.5433928,38.1812443 23.0919577,38.2101162 23.5250353,37.9502696 L33.5724347,32.4357487 C34.0055123,32.204774 34.5540772,32.3491332 34.7850519,32.7822107 C35.0160266,33.2152883 34.8716674,33.7638532 34.4385899,33.9948279 L26.7875529,38.2101162 C25.7770386,38.7586811 25.7481668,40.1734011 26.7298092,40.7797097 C27.1917586,41.0684281 27.7691954,41.0684281 28.2600166,40.8085816 L37.4990046,35.7271381 C37.787723,35.582779 37.960954,35.2651887 37.960954,34.9475985 L37.960954,24.0340439 C37.9320822,23.5143509 37.7011075,23.0524015 37.2969018,22.8214268" id="Path"></path>
        </g>
    </g>
</svg>